<svg width="199" height="59" viewBox="0 0 199 59" fill="none" xmlns="http://www.w3.org/2000/svg">
<g clip-path="url(#clip0_2_6)">
<path d="M0 0V58.992H40.627V0H0ZM34.751 53.053H5.855V5.943H34.751V53.053V53.053Z" fill="#FBD42C"/>
<path d="M64.838 20.568H64.781C61.54 15.289 58.268 10.626 54.968 5.932H52.45V26.465H55.229V11.739H55.257C58.53 17.049 61.8 21.743 65.101 26.465H67.619V5.932H64.838V20.568ZM84.899 26.465L78.443 5.932H75.55L68.544 26.465H71.554L73.321 20.862H79.427L81.02 26.465H84.899V26.465ZM74.217 18.338C75.028 15.639 75.839 13.15 76.562 9.978H76.621C77.432 13.149 78.155 15.639 78.908 18.338H74.217ZM88.169 26.465H91.643V8.69H96.97V5.932H82.844V8.69H88.17V26.465H88.169ZM101.542 5.932H98.098V26.465H101.542V5.932ZM112.255 26.815C117.553 26.815 120.853 22.035 120.853 15.904C120.853 10.155 117.204 5.578 112.255 5.578C107.304 5.578 103.655 10.155 103.655 15.904C103.655 22.036 106.955 26.815 112.255 26.815ZM112.255 8.513C115.7 8.513 117.146 12.12 117.146 15.905C117.146 19.835 115.874 23.883 112.255 23.883C108.636 23.883 107.363 19.836 107.363 15.905C107.363 12.12 108.81 8.513 112.255 8.513ZM125.742 11.739H125.774C129.044 17.049 132.314 21.743 135.615 26.465H138.133V5.932H135.354V20.568H135.296C132.055 15.289 128.783 10.626 125.483 5.932H122.965V26.465H125.742V11.739V11.739ZM143.833 20.862H149.943L151.535 26.465H155.413L148.959 5.932H146.064L139.057 26.465H142.071L143.833 20.862ZM147.079 9.978H147.136C147.945 13.149 148.669 15.639 149.424 18.338H144.731C145.544 15.639 146.352 13.149 147.079 9.978ZM166.731 23.706H159.872V5.932H156.426V26.465H166.732V23.706H166.731ZM62.006 49.949C61.281 50.331 60.501 50.449 59.575 50.449C56.594 50.449 53.699 47.573 53.699 42.705C53.699 38.042 56.217 35.078 59.923 35.078C61.255 35.078 62.702 35.576 63.628 36.162L64.756 33.729C63.599 32.847 61.717 32.144 59.835 32.144C53.757 32.144 49.993 37.043 49.993 42.645C49.993 48.688 53.757 53.382 59.718 53.382C61.687 53.382 63.627 52.857 65.481 52.12V43.641H62.006V49.949V49.949ZM72.107 43.643H77.782V40.887H72.107V35.255H77.898V32.498H68.635V53.031H78.94V50.271H72.107V43.643ZM88.609 32.145C83.658 32.145 80.012 36.721 80.012 42.471C80.012 48.601 83.311 53.383 88.609 53.383C93.906 53.383 97.205 48.601 97.205 42.471C97.205 36.721 93.558 32.145 88.609 32.145ZM88.609 50.449C84.989 50.449 83.716 46.401 83.716 42.47C83.716 38.685 85.163 35.077 88.609 35.077C92.053 35.077 93.5 38.684 93.5 42.47C93.5 46.401 92.228 50.449 88.609 50.449ZM110.406 49.949C109.683 50.331 108.9 50.449 107.974 50.449C104.992 50.449 102.097 47.573 102.097 42.705C102.097 38.042 104.616 35.078 108.323 35.078C109.654 35.078 111.102 35.576 112.025 36.162L113.155 33.729C111.998 32.847 110.115 32.144 108.232 32.144C102.156 32.144 98.393 37.043 98.393 42.645C98.393 48.688 102.156 53.382 108.12 53.382C110.086 53.382 112.025 52.857 113.88 52.12V43.641H110.406V49.949ZM128.759 38.424C128.759 34.432 126.355 32.498 122.478 32.498H117.064V53.031H120.537V45.287H122.1L125.371 53.031H129.336L125.257 44.523C127.483 43.321 128.759 40.887 128.759 38.424ZM121.985 42.646C121.636 42.676 120.824 42.706 120.536 42.735V35.256H122.073C124.125 35.256 125.282 36.456 125.282 38.569C125.282 41.325 123.635 42.559 121.985 42.646ZM136.401 32.498L129.394 53.031H132.403L134.17 47.427H140.278L141.874 53.031H145.75L139.294 32.498H136.401ZM135.07 44.907C135.88 42.206 136.69 39.713 137.414 36.546H137.473C138.282 39.713 139.006 42.206 139.76 44.907H135.07ZM171.167 40.388H163.958V32.498H160.513V53.031H163.958V43.144H171.167V53.031H174.639V32.554H171.167V40.388ZM177.967 53.029H181.411V32.498H177.967V53.029ZM193.57 50.449C190.212 50.449 187.374 47.573 187.374 42.705C187.374 38.042 189.953 35.078 193.483 35.078C194.815 35.078 196.205 35.693 197.045 36.221L198.144 33.73C196.957 32.908 195.28 32.145 193.484 32.145C187.434 32.145 183.699 37.044 183.699 42.646C183.699 48.689 187.463 53.383 193.428 53.383C195.106 53.383 196.958 52.708 198 51.976L197.046 49.423C196.148 50.009 194.902 50.449 193.57 50.449ZM152.262 32.498H146.852V53.031H150.326V45.287H151.887C156.029 45.287 158.545 41.882 158.545 38.424C158.544 34.432 156.144 32.498 152.262 32.498ZM151.771 42.646C151.424 42.673 150.586 42.701 150.325 42.728V35.255H151.886C153.914 35.255 155.072 36.455 155.072 38.568C155.071 41.325 153.421 42.559 151.771 42.646Z" fill="white"/>
</g>
<defs>
<clipPath id="clip0_2_6">
<rect width="199" height="59" fill="white"/>
</clipPath>
</defs>
</svg>
