<svg width="922" height="213" viewBox="0 0 922 213" fill="none" xmlns="http://www.w3.org/2000/svg">
<path fill-rule="evenodd" clip-rule="evenodd" d="M82.1916 173.898C92.0431 175.188 101.997 176.034 111.789 177.034L114.626 188.996C98.2548 187.97 81.4652 187.731 65.0087 187.731C49.3384 187.731 33.3606 187.91 17.7158 188.996L19.9715 177.059C28.2083 176.008 36.462 175.308 44.7502 173.983C45.5021 159.543 45.6304 114.609 45.6304 94.1705V84.7974C45.6304 77.8337 45.5021 40.7852 44.7502 28.9687C36.5219 27.2512 27.9606 26.8923 19.6469 26.1404L17.955 14.5028L76.612 14.2895C102.356 14.2895 124.751 16.34 137.02 21.347C159.655 30.78 162.312 46.6639 162.312 53.5932C162.312 94.7686 121.948 113.549 86.8054 118.436L88.2751 105.594C109.559 100.288 125.084 88.4115 125.084 62.1291C125.084 48.9536 118.599 38.4612 107.936 33.1551C101.63 30.0536 91.5902 28.6352 82.1572 28.3362C81.4652 39.0678 81.2859 67.5549 81.2859 85.4554V95.4351C81.2859 113.763 81.4652 160.996 82.1916 173.898ZM251.532 174.017C259.64 175.461 267.929 176.213 276.003 177.034L278.874 189.15C262.17 187.552 244.414 187.731 227.779 187.731C214.065 187.731 200.232 188.15 186.663 188.996L188.953 176.88C197.122 176.461 205.469 175.308 213.552 173.924C214.398 160.569 214.638 121.538 214.638 100.135V86.2073C214.638 79.0384 214.398 41.3919 213.672 29.182C205.469 27.9432 197.361 27.0117 189.226 26.1404L186.39 13.956C203.12 15.7674 221.293 15.4683 237.904 15.4683C251.438 15.4683 265.485 15.4942 278.994 13.9305L276.003 26.1404C267.835 27.0117 259.64 28.3706 251.498 29.4215C250.9 37.6838 250.626 61.5568 250.626 87.446V102.006C250.626 130.065 250.9 164.431 251.532 174.017ZM421.805 148.607C409.211 133.714 398.445 120.06 392.301 112.763C383.919 124.101 363.302 156.476 354.014 174.436C359.807 175.521 365.592 176.461 371.47 177.059L373.128 188.663H369.18C365.412 188.663 345.248 187.731 331.713 187.731C321.401 187.731 311.335 188.269 300.996 189.09L305.004 177.059C310.25 176.308 315.975 175.76 320.888 173.898C330.962 167.114 371.496 113.395 382.168 99.7158C373.974 89.2233 362.943 74.7578 352.511 61.3088C341.813 47.6295 331.859 35.1206 326.527 29.3273C321.127 27.6697 315.462 26.9522 309.977 25.8924L308.259 13.7169C321.255 15.8871 335.627 15.4683 348.503 15.4683C363.302 15.4683 378.195 14.9216 392.994 14.2895L389.525 26.1404C383.74 26.7725 377.947 27.4904 372.197 28.6097C378.707 39.0678 395.942 64.5045 403.477 74.604C411.501 63.7271 427.564 40.6658 434.562 28.5158L430.401 27.6697C426.898 27.0376 423.437 26.4993 420.062 25.9866L417.738 14.1098C430.067 15.1352 442.517 15.4683 454.991 15.4683C464.458 15.4683 473.925 14.9216 483.393 14.1098L482.274 25.7131C476.694 27.157 471.123 28.1824 465.45 29.5753L463.527 31.4975C455.265 39.2216 447.789 47.9027 440.346 56.3106C429.435 68.6658 418.251 81.6871 413.158 87.7195C439.321 123.529 464.946 159.936 491.8 195.114L472.721 198.882C454.026 184.749 436.971 166.208 421.805 148.607ZM637.745 174.257C630.576 153.366 624.211 131.518 615.35 111.225C604.926 111.439 576.046 112.763 565.554 113.942C562.845 122.503 553.224 156.741 550.302 174.257C556.668 175.735 563.264 176.308 569.749 177.034L572.039 188.996C558.018 188.15 543.826 187.731 529.864 187.731C519.346 187.731 508.794 188.15 498.37 189.09L500.053 177.034C507.17 176.308 514.134 175.342 521.123 173.898C530.377 155.656 569.296 50.9701 577.67 28.5158C571.86 27.3706 566.066 26.7725 560.248 26.072L559.769 14.2037C571.825 15.0155 584.121 15.4683 596.271 15.4683C611.796 15.4683 627.526 15.289 642.906 14.2037L641.18 26.072C635.635 26.7126 630.029 27.3706 624.578 28.6097C628.765 42.0842 640.095 74.638 648.297 97.0328C654.714 114.814 668.701 152.853 679.433 173.898C686.636 175.308 693.779 176.213 701.016 177.153L702.767 189.415C688.567 187.039 671.324 187.731 657.218 187.731C642.538 187.731 627.466 187.91 612.787 189.09L615.624 176.974C623.066 176.308 630.388 175.675 637.745 174.257ZM744.91 29.182C736.673 27.9773 728.12 27.3706 719.824 26.6786L718.166 14.9216L775.319 14.6824C797.5 14.6824 828.61 14.9216 845.46 21.6117C858.934 26.9522 867.914 36.9234 867.914 51.7305C867.914 67.7002 851.159 86.9676 833.643 97.7248C850.313 125.904 882.175 170.07 903.544 192.704L883.2 195.447C866.231 187.637 814.085 128.527 799.098 110.413C792.587 110.9 785.897 111.439 781.437 111.593V114.361C781.437 128.561 781.83 160.962 782.462 174.197C790.485 175.521 798.739 176.308 806.882 177.034L809.172 189.09C794.373 187.885 779.087 187.731 764.288 187.731C748.977 187.731 733.093 187.731 717.841 189.09L720.097 176.974C728.359 176.308 736.801 175.581 744.841 174.017C745.567 162.286 745.841 121.658 745.841 98.9298V84.5238C745.841 76.5606 745.567 39.3073 744.91 29.182ZM591.452 40.1531C584.633 58.9592 575.081 84.9168 571.159 96.3067L610.95 97.0328C606.037 82.3535 596.689 55.9432 591.452 40.1531ZM805.549 93.111C815.05 89.6163 830.208 79.611 830.208 58.3611C830.208 46.3649 819.655 29.3273 782.436 28.3362C781.83 41.99 781.437 78.3464 781.437 93.5639V97.3318C788.913 97.1182 797.201 96.187 805.549 93.111Z" fill="white"/>
</svg>
