<svg width="512" height="245" viewBox="0 0 512 245" fill="none" xmlns="http://www.w3.org/2000/svg">
<path d="M221.516 183.01H207.128C206.621 183.01 206.257 182.438 206.257 181.892C206.257 181.698 213.913 157.015 213.913 157.015C214.186 156.092 214.212 156.065 214.316 156.065H214.329C214.445 156.065 214.459 156.092 214.731 157.015C214.731 157.015 222.387 181.698 222.387 181.892C222.387 182.438 221.997 183.01 221.517 183.01M240.922 126.535C240.851 126.291 240.707 126.075 240.509 125.914C240.312 125.754 240.07 125.658 239.817 125.638H186.981C186.73 125.658 186.49 125.753 186.293 125.911C186.096 126.068 185.951 126.281 185.876 126.522C185.876 126.522 156.67 222.939 156.67 223.122C156.67 223.602 157.047 223.992 157.541 223.992H192.466C192.604 223.934 192.726 223.844 192.821 223.728C192.917 223.613 192.982 223.476 193.012 223.329L197.08 210.332C197.142 210.171 197.251 210.032 197.392 209.932C197.533 209.833 197.7 209.777 197.873 209.772L230.095 209.747C230.445 209.773 230.758 210.02 230.888 210.332L235.047 223.329C235.112 223.629 235.32 223.901 235.593 224.005L269.959 223.992C270.439 223.992 270.843 223.628 270.843 223.147C270.843 222.978 240.922 126.535 240.922 126.535M340.485 165.901L319.025 165.914C319.025 165.914 318.454 165.745 318.454 165.095L318.441 154.268C318.441 153.618 319.013 153.449 319.013 153.449H338.691C340.979 153.449 345.606 154.593 345.606 159.883C345.606 165.173 340.485 165.901 340.485 165.901M443.375 157.518H492V125.634H429.48C423.632 125.634 415.404 128.65 410.686 132.146C405.968 135.642 399.144 143.61 399.144 154.593C399.144 165.576 405.812 174.116 405.812 174.116C409.23 178.353 417.835 187.179 417.835 187.179C418.03 187.387 418.147 187.659 418.147 187.972C418.147 188.634 417.614 189.167 416.951 189.167H368.794C362.932 189.141 362.529 186.815 362.529 186.477C362.529 185.879 363.257 185.502 363.257 185.502C365.454 184.449 369.937 180.952 369.937 180.952C379.452 173.544 380.597 163.38 380.597 157.934C380.597 152.474 379.777 142.817 370.016 134.356C360.255 125.894 347.894 125.66 347.894 125.66H279.174V223.43C279.174 223.741 279.46 223.988 279.772 223.988H318.025V196.563C318.025 196.083 318.765 196.563 318.765 196.563L338.691 216.58C345.775 223.741 357.486 223.988 357.486 223.988L432.821 223.975C445.676 223.975 452.825 216.983 454.787 215.033C456.737 213.07 463.249 205.753 463.249 193.626C463.249 181.512 457.712 175.312 455.346 172.466C453.241 169.918 444.844 161.027 443.089 159.181C442.983 159.095 442.898 158.986 442.839 158.862C442.781 158.739 442.751 158.604 442.751 158.467C442.751 158.037 442.998 157.635 443.375 157.517M139.212 223.986C139.472 223.986 139.654 223.804 139.732 223.518C139.732 223.518 169.328 126.308 169.328 126.216C169.328 125.956 169.172 125.671 168.925 125.645H132.44C132.258 125.645 132.141 125.788 132.102 125.983C132.102 125.996 124.55 151.263 124.55 151.276C124.498 151.484 124.394 151.614 124.212 151.614C124.03 151.614 123.874 151.432 123.848 151.276L115.946 125.97C115.92 125.8 115.79 125.645 115.608 125.645L75.315 125.632C75.2564 125.648 75.2024 125.678 75.1573 125.718C75.1122 125.759 75.0771 125.809 75.055 125.866L67.971 151.263C67.932 151.484 67.815 151.614 67.62 151.614C67.5373 151.612 67.4579 151.582 67.396 151.527C67.334 151.472 67.2936 151.397 67.282 151.315L59.769 125.944C59.76 125.867 59.7259 125.794 59.6719 125.738C59.6179 125.681 59.547 125.644 59.47 125.632H20.581C20.4279 125.634 20.2818 125.697 20.1746 125.806C20.0675 125.916 20.0079 126.063 20.009 126.216C20.009 126.268 20.022 126.372 20.022 126.372L50.06 223.518C50.138 223.804 50.32 223.986 50.58 223.986L82.88 223.999C83.074 223.973 83.27 223.752 83.321 223.518C83.334 223.518 94.564 187.371 94.564 187.371C94.629 187.15 94.72 187.021 94.902 187.021C95.097 187.021 95.202 187.176 95.253 187.358L106.21 223.674C106.242 223.766 106.302 223.845 106.381 223.901C106.46 223.957 106.555 223.987 106.652 223.986H139.212ZM111.114 20.004C105.252 20.004 97.038 23.019 92.32 26.516C87.6 30.012 80.778 37.98 80.778 48.963C80.778 59.946 87.445 68.486 87.445 68.486C90.864 72.723 99.468 81.613 99.468 81.613C99.663 81.821 99.78 82.094 99.78 82.393C99.78 83.056 99.247 83.602 98.585 83.602H20V118.358H114.455C127.297 118.358 134.458 111.365 136.421 109.403C138.371 107.453 144.87 100.135 144.87 88.008C144.87 75.894 139.346 69.629 136.98 66.783C134.874 64.235 126.478 55.397 124.723 53.564C124.618 53.4739 124.533 53.3623 124.475 53.2367C124.417 53.1111 124.386 52.9745 124.385 52.836C124.385 52.407 124.632 52.017 125.009 51.887H170.501V118.358H205.478V52.056H247.942V20.004H111.114ZM416.181 60.272L394.722 60.285C394.722 60.285 394.15 60.116 394.15 59.466L394.137 48.639C394.137 47.989 394.709 47.82 394.709 47.82H414.388C416.675 47.82 421.302 48.964 421.302 54.254C421.302 59.544 416.182 60.272 416.182 60.272M444.491 83.538C438.641 83.512 438.226 81.186 438.226 80.848C438.226 80.25 438.953 79.873 438.953 79.873C441.15 78.82 445.634 75.323 445.634 75.323C455.149 67.915 456.293 57.751 456.293 52.305C456.293 46.845 455.473 37.188 445.713 28.727C435.951 20.265 423.59 20.005 423.59 20.005H354.87V117.8C354.87 118.112 355.157 118.36 355.469 118.36H393.721V90.946C393.721 90.452 394.462 90.946 394.462 90.946L414.388 110.95C421.471 118.111 433.182 118.358 433.182 118.358H491.997V83.54H444.491V83.538ZM299.077 77.372H284.688C284.155 77.372 283.818 76.8 283.818 76.254C283.818 76.046 291.473 51.377 291.473 51.377C291.746 50.454 291.823 50.427 291.876 50.427H291.889C291.941 50.427 292.019 50.454 292.292 51.377C292.292 51.377 299.947 76.047 299.947 76.254C299.947 76.8 299.597 77.372 299.077 77.372M318.443 20.871C318.374 20.6278 318.23 20.4126 318.032 20.2562C317.833 20.0998 317.591 20.0101 317.338 20H264.503C263.983 20.026 263.541 20.377 263.398 20.858C263.398 20.858 234.218 117.301 234.218 117.483C234.218 117.964 234.608 118.354 235.088 118.354H270.014C270.3 118.264 270.507 117.99 270.572 117.691L274.641 104.681C274.706 104.523 274.816 104.388 274.957 104.291C275.098 104.194 275.263 104.14 275.434 104.135H307.642C307.814 104.147 307.98 104.205 308.122 104.303C308.264 104.402 308.377 104.537 308.448 104.694L312.608 117.691C312.672 117.991 312.88 118.263 313.153 118.367L347.519 118.354C348 118.354 348.39 117.99 348.39 117.496C348.39 117.34 318.443 20.871 318.443 20.871" fill="white"/>
</svg>
