<svg width="700" height="295" viewBox="0 0 700 295" fill="none" xmlns="http://www.w3.org/2000/svg">
<path d="M602.181 128.59C590.482 131.29 559.584 132.79 559.584 132.79L555.784 144.989C555.784 144.989 571.083 143.689 582.282 144.789C582.282 144.789 585.882 144.489 586.282 148.789C586.482 153.188 585.982 157.788 585.982 157.788C585.982 157.788 585.682 160.488 581.982 161.188C577.683 161.888 548.685 163.187 548.685 163.187L543.985 178.986C543.985 178.986 542.285 182.586 546.185 181.586C549.785 180.586 580.182 174.787 584.182 175.587C588.382 176.586 593.181 182.386 591.781 187.586C590.182 193.885 559.784 213.284 541.385 211.984C541.385 211.984 531.686 212.584 523.587 199.485C515.787 186.986 526.286 163.487 526.286 163.487C526.286 163.487 521.587 152.488 525.087 148.489C525.087 148.489 527.086 146.789 533.086 146.289L540.585 130.89C540.585 130.89 532.086 131.39 527.086 125.19C522.487 119.191 522.087 116.591 525.687 114.991C529.486 112.991 564.684 106.692 588.882 107.492C588.882 107.492 597.381 106.492 604.88 121.191C604.88 121.191 608.28 127.19 602.281 128.59M510.988 187.786C507.988 195.085 499.689 202.784 489.689 198.085C479.49 193.285 463.391 160.488 463.391 160.488C463.391 160.488 457.392 148.289 456.192 148.689C456.192 148.689 454.892 146.289 454.192 159.688C453.192 172.987 454.392 198.885 448.892 202.984C443.893 206.984 437.893 205.284 434.494 200.585C431.694 195.885 430.494 184.586 432.094 164.887C433.894 145.189 438.393 124.19 444.093 117.691C450.092 111.091 454.892 115.891 456.692 117.691C456.692 117.691 464.391 124.69 477.39 145.389L479.59 149.189C479.59 149.189 491.389 168.887 492.589 168.787C492.589 168.787 493.589 169.787 494.389 168.987C495.589 168.687 495.189 162.288 495.189 162.288C495.189 162.288 492.989 140.989 481.99 104.992C481.99 104.992 480.39 100.392 481.49 95.9926C482.49 91.9929 486.79 93.9928 486.79 93.9928C486.79 93.9928 503.388 101.992 511.488 128.99C519.487 155.988 514.087 180.486 511.088 187.786M429.594 118.491C427.994 121.291 427.294 125.19 420.395 126.29C420.395 126.29 353.4 130.99 350.1 135.69C350.1 135.69 347.9 138.489 351.5 139.189C355.3 139.989 370.498 141.989 377.698 142.389C385.497 142.389 411.695 142.589 421.295 154.388C421.295 154.388 426.794 159.988 426.594 172.687C426.394 185.686 424.094 190.285 418.995 194.985C413.695 199.385 368.299 219.783 339.001 188.586C339.001 188.586 325.602 173.587 343.701 162.188C343.701 162.188 356.699 154.188 389.997 163.487C389.997 163.487 399.996 167.087 399.596 170.787C398.996 174.787 391.297 178.786 380.098 178.586C369.299 178.286 361.299 173.087 362.899 173.987C364.399 174.487 351.2 167.587 347.1 172.287C343.101 176.686 344.1 179.286 348.1 181.986C358.099 187.786 397.396 185.686 409.095 172.587C409.095 172.587 413.795 167.287 406.696 162.988C399.696 158.988 379.298 156.488 371.398 156.188C363.899 155.788 335.801 156.188 331.601 148.889C331.601 148.889 327.602 143.689 332.001 129.49C336.601 114.491 369.299 108.692 383.497 107.492C383.497 107.492 422.494 105.892 429.794 113.891C429.794 113.891 430.794 115.691 429.594 118.391M319.002 206.384C314.303 209.884 304.304 208.384 301.404 204.384C298.604 200.885 297.604 187.086 298.104 165.387C298.804 143.189 299.104 115.991 304.104 111.591C309.103 107.292 312.103 111.091 314.103 113.991C316.103 116.991 318.702 120.291 319.102 127.19C319.702 134.19 321.402 170.187 321.402 170.187C321.402 170.187 323.602 202.984 319.102 206.384M329.002 89.3931C315.203 94.0928 305.803 92.5929 297.804 89.0932C294.304 95.3927 292.204 97.2925 289.605 97.6925C285.605 98.0925 282.105 91.693 281.605 89.6931C280.805 88.1932 278.905 85.4934 281.205 79.3939C273.406 72.3945 272.806 62.9952 274.206 56.6957C276.006 49.2962 289.205 21.4984 329.202 18.1986C329.202 18.1986 348.8 16.7987 352.2 27.1979H352.8C352.8 27.1979 371.798 27.1979 371.398 44.1966C371.398 61.1953 350.4 82.3937 329.002 89.6931M346.8 40.9969C334.201 42.9967 314.803 59.7954 305.503 73.6943C319.802 76.2942 344.8 75.2942 356 52.696C356 52.696 361.299 38.4971 346.8 40.9969ZM291.504 51.996C287.505 58.4955 287.305 62.3952 289.205 64.995C293.904 57.9956 302.204 46.9964 314.703 38.3971C305.103 39.397 297.004 43.3967 291.504 51.996ZM632.178 205.684C622.979 228.282 615.18 251.181 610.68 285.478C610.68 285.478 609.68 292.178 604.181 289.978C598.681 287.978 589.682 278.979 587.682 266.28C585.682 249.681 593.081 221.683 608.18 189.485C603.781 182.486 600.681 172.087 603.181 157.488C603.181 157.488 607.18 130.49 634.178 106.092C634.178 106.092 637.378 103.392 639.178 104.292C641.378 105.292 640.478 113.891 638.678 118.291C637.078 122.491 625.079 143.289 625.079 143.289C625.079 143.289 617.579 157.488 619.679 168.587C633.878 146.789 666.176 102.592 686.174 116.591C698.873 125.59 698.873 154.588 689.374 171.387C681.875 184.686 660.676 212.184 632.378 205.784M673.975 137.789C666.576 145.789 653.377 160.988 642.978 181.586C653.977 180.386 664.676 174.287 667.976 171.187C673.275 166.487 685.474 153.788 683.574 136.989C683.574 136.989 682.375 128.19 673.975 137.789M226.01 217.483C190.612 228.282 157.215 223.283 139.016 218.483C138.516 225.883 137.716 228.982 136.516 230.182C135.116 231.782 123.517 238.382 117.118 228.982C114.318 224.483 112.918 216.383 112.118 208.984C71.1214 190.385 52.1229 162.988 51.5229 161.988C50.523 160.988 41.2237 151.288 50.523 139.289C59.2223 128.49 88.0201 117.591 113.818 113.291C114.818 91.293 117.218 74.2943 120.318 66.7949C124.017 57.7956 128.717 65.795 132.917 71.7945C136.316 76.2942 138.416 95.5927 138.616 110.991C155.415 110.192 165.614 111.391 184.313 114.991C208.911 119.191 225.31 131.79 224.01 145.989C222.81 159.988 210.011 165.787 205.011 166.187C200.012 166.587 192.012 162.888 192.012 162.888C186.413 160.288 191.512 157.888 198.012 155.088C205.211 151.588 203.611 148.089 203.611 148.089C201.011 140.089 169.114 134.79 137.416 134.79C137.416 152.288 138.116 181.286 138.616 198.185C160.815 202.384 177.413 201.485 177.413 201.485C177.413 201.485 258.407 199.185 260.707 147.489C263.207 95.6927 179.713 46.0965 118.218 30.4977C56.8225 14.3989 22.0252 25.798 19.0254 27.2979C15.7257 28.8978 18.7254 29.4977 18.7254 29.4977C18.7254 29.4977 22.0252 29.9977 28.0247 31.9976C34.0242 33.9974 29.2246 36.9972 29.2246 36.9972C18.7254 40.5969 7.02632 38.4971 4.7265 33.6974C2.42667 28.9978 6.22638 24.6981 10.726 18.3986C14.9257 11.8991 19.7253 12.0991 19.7253 12.0991C95.7195 -14.3989 188.512 33.0975 188.512 33.0975C275.306 76.8941 290.105 128.39 288.505 148.389C287.105 168.087 279.505 201.385 226.01 217.583M59.0223 145.989C50.423 149.988 56.4225 156.388 56.4225 156.388C72.6213 173.687 92.4198 184.586 111.418 191.385C113.618 161.388 113.418 150.688 113.418 135.59C84.0204 137.589 67.0217 142.389 59.0223 145.989Z" fill="white"/>
</svg>
